<?xml version="1.0" encoding="UTF-8"?>
<svg width="40" height="40" viewBox="0 0 40 40" fill="none" xmlns="http://www.w3.org/2000/svg">
  <path d="M20 4C12.268 4 6 10.268 6 18C6 25.732 12.268 32 20 32C27.732 32 34 25.732 34 18C34 10.268 27.732 4 20 4ZM20 30C13.383 30 8 24.617 8 18C8 11.383 13.383 6 20 6C26.617 6 32 11.383 32 18C32 24.617 26.617 30 20 30Z" fill="#48944F"/>
  <path d="M20 8C14.486 8 10 12.486 10 18C10 23.514 14.486 28 20 28C25.514 28 30 23.514 30 18C30 12.486 25.514 8 20 8ZM20 26C15.589 26 12 22.411 12 18C12 13.589 15.589 10 20 10C24.411 10 28 13.589 28 18C28 22.411 24.411 26 20 26Z" fill="#48944F"/>
  <path d="M20 12C16.686 12 14 14.686 14 18C14 21.314 16.686 24 20 24C23.314 24 26 21.314 26 18C26 14.686 23.314 12 20 12ZM20 22C17.794 22 16 20.206 16 18C16 15.794 17.794 14 20 14C22.206 14 24 15.794 24 18C24 20.206 22.206 22 20 22Z" fill="#48944F"/>
  <path d="M20 16C18.897 16 18 16.897 18 18C18 19.103 18.897 20 20 20C21.103 20 22 19.103 22 18C22 16.897 21.103 16 20 16Z" fill="#48944F"/>
</svg>